# xmcd
#
# Track frame offsets: 
#        150
#        29390
#        50316
#        64079
#        82669
#        98109
#        119805
#        134724
#        158559
#        169162
#        188642
#        208854
#        223657
#        240633
#        257362
#        281571
#        299670
#        327653
#
# Disc length: 4650 seconds
#
# Revision: 0
# Processed by: cddbd v1.5.1PL2 Copyright (c) Steve Scherf et al.
# Submitted via: ExactAudioCopy v0.95b4
#
DISCID=12122812
DTITLE=Various Artist - Best of Brazilian Beats
DYEAR=2006
DGENRE=Electronic
TTITLE0=Ive Mendes - A Beira Mar (Sao Benitez Lush Mix)
TTITLE1=Mandrake - Berimbau (Bongo Re-Edit)
TTITLE2=Rosinha de Valencia - Summertime
TTITLE3=Trio Motoco - Nao Adianta
TTITLE4=Paula Lima - E Isso Ai
TTITLE5=Ivo Meirelles and Funk'n'iata - Baile Funk Medley
TTITLE6=Barbatuques - Barbapappas Groove
TTITLE7=Sasso - Coco Dub (Afrociberdelia)
TTITLE8=Siri - No tranco
TTITLE9=Black Alien - Babylon By Gus
TTITLE10=Juca Chaves - Take Me Back To Paiui (Dubben Mix)
TTITLE11=Agora Chega - Super Som T.A.
TTITLE12=Seu Jorge - Chega No Suingue
TTITLE13=Tejo, Black Alien and Speed - Follow Me Follow Me (Fatboy Slim 
TTITLE13=Remix)
TTITLE14=Stereo Maracana - Freestyle Love
TTITLE15=Marcelo D2 - A Maldiçao Do Samba
TTITLE16=Arakatuba - Riva (Gringo Jo Casa De Samba Mix)
TTITLE17=Barbatuques - Num Deu Pra Credita 
EXTD=
EXTT0=
EXTT1=
EXTT2=
EXTT3=
EXTT4=
EXTT5=
EXTT6=
EXTT7=
EXTT8=
EXTT9=
EXTT10=
EXTT11=
EXTT12=
EXTT13=
EXTT14=
EXTT15=
EXTT16=
EXTT17=
PLAYORDER=
